<svg width="142" height="111" viewBox="0 0 142 111" fill="none" xmlns="http://www.w3.org/2000/svg">
<path d="M13.0916 101.29C4.98037 92.4928 0.625488 82.6257 0.625488 66.6308C0.625488 38.485 19.9744 13.2583 48.1117 0.785645L55.1441 11.8671C28.881 26.3742 23.7465 45.1998 21.699 57.0693C25.9279 54.8337 31.464 54.0536 36.8899 54.5683C51.0964 55.9113 62.2946 67.821 62.2946 82.6257C62.2946 90.0904 59.3907 97.2494 54.2217 102.528C49.0528 107.806 42.0421 110.772 34.7321 110.772C30.6895 110.735 26.6944 109.879 22.9792 108.251C19.2639 106.623 15.9029 104.257 13.0916 101.29ZM91.8416 101.29C83.7304 92.4928 79.3755 82.6257 79.3755 66.6308C79.3755 38.485 98.7244 13.2583 126.862 0.785645L133.894 11.8671C107.631 26.3742 102.496 45.1998 100.449 57.0693C104.678 54.8337 110.214 54.0536 115.64 54.5683C129.846 55.9113 141.045 67.821 141.045 82.6257C141.045 90.0904 138.141 97.2494 132.972 102.528C127.803 107.806 120.792 110.772 113.482 110.772C109.44 110.735 105.444 109.879 101.729 108.251C98.0139 106.623 94.6529 104.257 91.8416 101.29Z" fill="#B6B6B6"/>
</svg>
