<svg width="149" height="98" viewBox="0 0 149 98" fill="none" xmlns="http://www.w3.org/2000/svg">
<path d="M134.999 9.03085C143.54 16.7344 148.125 25.3746 148.125 39.3804C148.125 64.0263 127.752 86.116 98.1263 97.0376L90.7218 87.3342C118.374 74.631 123.781 58.1465 125.936 47.753C121.484 49.7106 115.655 50.3936 109.942 49.9429C94.9837 48.767 83.193 38.3383 83.193 25.3746C83.193 18.8381 86.2505 12.5693 91.693 7.94732C97.1354 3.32533 104.517 0.728722 112.214 0.728722C116.47 0.760315 120.677 1.51059 124.589 2.93589C128.5 4.36119 132.039 6.43305 134.999 9.03085ZM52.0826 9.03085C60.623 16.7344 65.2083 25.3746 65.2083 39.3804C65.2083 64.0263 44.8357 86.116 15.2096 97.0376L7.80511 87.3342C35.4578 74.631 40.864 58.1465 43.0198 47.753C38.5672 49.7106 32.7382 50.3936 27.0252 49.9429C12.067 48.767 0.276291 38.3383 0.276291 25.3746C0.276291 18.8381 3.33383 12.5693 8.77629 7.94732C14.2188 3.32533 21.6003 0.728722 29.2971 0.728722C33.5536 0.760315 37.7601 1.51059 41.6719 2.93589C45.5837 4.36119 49.1226 6.43305 52.0826 9.03085Z" fill="#B6B6B6"/>
</svg>
