<svg width="431" height="210" viewBox="0 0 431 210" fill="none" xmlns="http://www.w3.org/2000/svg">
<path fill-rule="evenodd" clip-rule="evenodd" d="M400.072 0.427046C402.149 0.965147 404.38 2.17003 406.404 3.9832C409.296 6.56842 411.077 9.77656 411.411 12.5343L411.457 13.207L411.782 13.128C415.157 12.3852 420.877 11.7827 419.766 12.005C419.254 12.1074 418.318 12.625 417.245 13.3122L416.382 13.8825L417.031 13.9176C418.906 14.0872 420.971 14.7189 422.989 15.8244C428.373 18.7722 431.402 23.9895 429.756 27.4725C428.393 24.2263 425.334 21.0796 421.5 18.9799C418.622 17.4036 415.563 16.5555 412.847 16.535L412.636 16.5438L412.434 16.69C412.294 16.7953 412.159 16.8947 412.034 16.9883C410.03 18.4651 403.243 20.9363 401.953 21.0211C400.66 21.1059 405.129 18.9477 406.457 17.7194C407.623 16.6461 407.711 15.0698 409.203 14.0551L409.507 13.8884L409.033 12.8356C407.931 10.6364 406.264 8.47517 404.205 6.63276C400.909 3.6849 396.99 1.88928 393.627 1.78985C394.993 0.143372 397.402 -0.268977 400.072 0.427046Z" fill="#F4AB24"/>
<path fill-rule="evenodd" clip-rule="evenodd" d="M355.53 69.3305C357.606 69.8686 359.838 71.0764 361.864 72.8867C364.754 75.4748 366.535 78.683 366.868 81.4408L366.915 82.1105L367.24 82.0344C370.614 81.2887 376.335 80.6892 375.223 80.9085C374.712 81.0109 373.776 81.5314 372.705 82.2157L371.84 82.7889L372.489 82.8211C374.366 82.9936 376.428 83.6253 378.446 84.7308C383.83 87.6786 386.86 92.893 385.213 96.3789C383.851 93.1328 380.792 89.9861 376.958 87.8834C374.083 86.31 371.021 85.459 368.304 85.4414L368.094 85.4502L367.892 85.5964C367.751 85.7017 367.617 85.8011 367.491 85.8918C365.488 87.3716 358.7 89.8427 357.41 89.9276C356.118 90.0124 360.586 87.8512 361.917 86.6258C363.081 85.5496 363.169 83.9763 364.66 82.9615L364.964 82.7948L364.491 81.7391C363.388 79.5399 361.721 77.3816 359.662 75.5392C356.366 72.5884 352.448 70.7957 349.084 70.6933C350.453 69.0469 352.86 68.6374 355.53 69.3305Z" fill="#F4AB24"/>
<path fill-rule="evenodd" clip-rule="evenodd" d="M267.457 5.24356C269.335 6.27882 271.203 7.99548 272.721 10.2502C274.885 13.4672 275.821 17.0145 275.467 19.7694L275.347 20.4332L275.681 20.4362C279.134 20.5473 284.828 21.372 283.697 21.3135C283.176 21.2843 282.141 21.5592 280.933 21.9598L279.953 22.299L280.576 22.4921C282.351 23.1208 284.197 24.238 285.881 25.8084C290.373 29.9904 292.028 35.7896 289.578 38.7638C289.054 35.2808 286.861 31.4789 283.661 28.4989C281.26 26.2646 278.503 24.6883 275.877 24.0011L275.669 23.9572L275.438 24.0508C275.274 24.1181 275.119 24.1824 274.976 24.2409C272.671 25.1796 265.486 25.9049 264.214 25.671C262.939 25.4341 267.802 24.4398 269.393 23.577C270.785 22.8225 271.259 21.3193 272.952 20.7023L273.291 20.6146L273.09 19.4769C272.56 17.073 271.478 14.5697 269.934 12.2769C267.466 8.60962 264.108 5.90448 260.874 4.98035C262.602 3.71991 265.038 3.91585 267.457 5.24356Z" fill="#F4AB24"/>
<path fill-rule="evenodd" clip-rule="evenodd" d="M186.944 14.4441C188.637 15.377 190.318 16.9241 191.684 18.9537C193.638 21.8547 194.48 25.0512 194.161 27.5311L194.053 28.1277L194.354 28.1336C197.466 28.2301 202.595 28.9729 201.575 28.9202C201.104 28.8968 200.174 29.1425 199.086 29.5051L198.203 29.8122L198.764 29.9847C200.364 30.5521 202.025 31.5581 203.543 32.9706C207.59 36.7403 209.082 41.9663 206.871 44.6451C206.4 41.5071 204.426 38.0797 201.542 35.395C199.381 33.383 196.895 31.9646 194.53 31.3446L194.342 31.3066L194.135 31.3885C193.989 31.4499 193.848 31.5055 193.719 31.5581C191.64 32.4062 185.168 33.0613 184.022 32.8478C182.876 32.6343 187.254 31.7394 188.686 30.9615C189.941 30.283 190.368 28.929 191.895 28.3704L192.199 28.2944L192.02 27.2679C191.544 25.1038 190.567 22.8461 189.175 20.7814C186.952 17.4768 183.925 15.0407 181.013 14.2072C182.571 13.0726 184.765 13.248 186.944 14.4441Z" fill="#F4AB24"/>
<path fill-rule="evenodd" clip-rule="evenodd" d="M259.248 121.193C261.178 121.242 263.386 121.842 265.532 123.017C268.597 124.696 270.814 127.15 271.671 129.498L271.849 130.08L272.118 129.945C274.926 128.603 279.824 126.904 278.894 127.325C278.464 127.521 277.751 128.167 276.952 128.989L276.309 129.668L276.885 129.562C278.567 129.331 280.506 129.463 282.503 130.019C287.829 131.507 291.554 135.464 290.823 138.856C288.963 136.289 285.635 134.151 281.842 133.092C278.997 132.297 276.137 132.18 273.75 132.715L273.566 132.768L273.42 132.937C273.317 133.057 273.218 133.174 273.127 133.279C271.671 134.987 266.223 138.54 265.108 138.88C263.991 139.219 267.468 136.411 268.387 135.06C269.188 133.882 268.945 132.481 270.045 131.288L270.279 131.077L269.647 130.25C268.229 128.545 266.325 126.992 264.14 125.796C260.646 123.88 256.841 123.108 253.87 123.708C254.732 121.982 256.762 121.131 259.248 121.193Z" fill="#F4AB24"/>
<path fill-rule="evenodd" clip-rule="evenodd" d="M129.937 28.1275C130.607 29.0488 131.218 30.3765 131.648 31.9615C132.262 34.2251 132.358 36.4798 132.005 38.0532L131.905 38.4246L132.037 38.4831C133.408 39.1177 135.616 40.5478 135.169 40.3255C134.961 40.2231 134.528 40.2144 134.014 40.2524L133.598 40.2933L133.829 40.5097C134.49 41.1736 135.14 42.1416 135.689 43.3494C137.157 46.5663 137.365 50.2745 136.157 51.6315C136.219 49.482 135.64 46.8675 134.596 44.5747C133.812 42.8552 132.832 41.466 131.838 40.6267L131.759 40.5653L131.659 40.5828C131.589 40.5975 131.522 40.6092 131.461 40.6179C130.466 40.7934 127.542 40.0389 127.05 39.688C126.562 39.337 128.58 39.5534 129.282 39.3049C129.896 39.0884 130.203 38.2754 130.928 38.1906L131.069 38.1936L131.077 37.4858C131.054 35.9768 130.814 34.3157 130.379 32.7014C129.68 30.122 128.548 27.9667 127.328 26.8846C128.118 26.4226 129.077 26.9431 129.937 28.1275Z" fill="#F4AB24"/>
<path fill-rule="evenodd" clip-rule="evenodd" d="M156.988 132.017C158.117 132.189 159.489 132.686 160.919 133.496C162.96 134.651 164.633 136.166 165.501 137.526L165.694 137.857L165.829 137.804C167.244 137.278 169.815 136.71 169.341 136.871C169.125 136.947 168.812 137.248 168.479 137.64L168.215 137.968L168.531 137.953C169.47 137.95 170.613 138.17 171.859 138.626C175.178 139.845 177.963 142.305 178.077 144.118C176.591 142.565 174.327 141.138 171.962 140.269C170.186 139.617 168.511 139.336 167.212 139.453L167.116 139.468L167.057 139.55C167.016 139.608 166.978 139.664 166.943 139.717C166.37 140.547 163.776 142.094 163.182 142.197C162.589 142.299 164.159 141.015 164.478 140.34C164.756 139.752 164.393 138.962 164.841 138.386L164.943 138.29L164.446 137.786C163.355 136.74 162.007 135.742 160.553 134.918C158.225 133.602 155.897 132.891 154.271 132.996C154.5 132.113 155.541 131.794 156.988 132.017Z" fill="#F4AB24"/>
<path fill-rule="evenodd" clip-rule="evenodd" d="M94.7702 106.05C95.7441 106.641 96.8232 107.627 97.8322 108.922C99.2739 110.773 100.236 112.815 100.514 114.403L100.567 114.786L100.713 114.789C102.222 114.844 104.81 115.306 104.313 115.274C104.082 115.259 103.678 115.42 103.219 115.654L102.851 115.853L103.149 115.961C104.014 116.321 104.988 116.961 105.962 117.862C108.559 120.263 110.188 123.6 109.594 125.32C108.822 123.313 107.278 121.126 105.427 119.415C104.038 118.134 102.599 117.23 101.356 116.842L101.26 116.815L101.175 116.871C101.116 116.909 101.058 116.947 101.005 116.979C100.157 117.526 97.1683 117.959 96.5805 117.827C95.9927 117.693 97.9374 117.111 98.4902 116.61C98.9727 116.172 98.9405 115.303 99.5751 114.944L99.7067 114.894L99.4406 114.239C98.8353 112.855 97.9725 111.414 96.946 110.098C95.3025 107.989 93.4279 106.436 91.8867 105.91C92.4365 105.182 93.5186 105.29 94.7702 106.05Z" fill="#F4AB24"/>
<mask id="mask0_164_401" style="mask-type:luminance" maskUnits="userSpaceOnUse" x="0" y="70" width="13" height="26">
<path d="M0 70.3862H12.5255V95.0921H0V70.3862Z" fill="white"/>
</mask>
<g mask="url(#mask0_164_401)">
<path fill-rule="evenodd" clip-rule="evenodd" d="M2.90383 72.1382C3.66711 72.9833 4.4187 74.2379 5.01237 75.7674C5.86339 77.9549 6.1997 80.1863 6.01254 81.7889L5.95405 82.1691L6.0915 82.2129C7.52156 82.6984 9.86991 83.8857 9.40199 83.7132C9.18558 83.6313 8.75276 83.6693 8.24683 83.7629L7.83448 83.8448L8.08891 84.0378C8.8171 84.6286 9.56576 85.5205 10.2413 86.664C12.0399 89.7083 12.6423 93.3727 11.5807 94.8496C11.4169 92.7059 10.563 90.1675 9.28209 88.0005C8.31994 86.3715 7.19987 85.0965 6.12074 84.3654L6.03593 84.3127L5.93942 84.342C5.86924 84.3624 5.8049 84.38 5.74349 84.3975C4.77549 84.6783 1.78668 84.2338 1.2632 83.9384C0.736801 83.643 2.76638 83.643 3.43901 83.3213C4.02682 83.0406 4.24616 82.2012 4.9568 82.0375L5.09718 82.0287L5.03284 81.3239C4.8486 79.8237 4.43333 78.1977 3.82796 76.6389C2.85996 74.1473 1.50593 72.1235 0.181152 71.1789C0.915193 70.6379 1.92121 71.0503 2.90383 72.1382Z" fill="#F4AB24"/>
</g>
<mask id="mask1_164_401" style="mask-type:luminance" maskUnits="userSpaceOnUse" x="123" y="185" width="14" height="25">
<path d="M123.328 185.68H136.055V210H123.328V185.68Z" fill="white"/>
</mask>
<g mask="url(#mask1_164_401)">
<path fill-rule="evenodd" clip-rule="evenodd" d="M126.121 187.022C126.884 187.867 127.633 189.122 128.229 190.652C129.08 192.836 129.416 195.07 129.229 196.67L129.171 197.053L129.308 197.094C130.738 197.583 133.084 198.767 132.616 198.594C132.399 198.515 131.97 198.553 131.461 198.644L131.051 198.729L131.306 198.919C132.034 199.51 132.783 200.405 133.458 201.545C135.257 204.59 135.859 208.257 134.798 209.731C134.634 207.59 133.78 205.052 132.496 202.882C131.537 201.256 130.417 199.978 129.338 199.247L129.25 199.197L129.153 199.223C129.086 199.244 129.022 199.261 128.96 199.279C127.992 199.559 125.001 199.118 124.477 198.823C123.954 198.527 125.983 198.524 126.656 198.205C127.244 197.925 127.463 197.082 128.174 196.922L128.314 196.91L128.247 196.205C128.062 194.708 127.65 193.079 127.045 191.523C126.074 189.031 124.723 187.008 123.395 186.06C124.132 185.519 125.138 185.934 126.121 187.022Z" fill="#F4AB24"/>
</g>
<path fill-rule="evenodd" clip-rule="evenodd" d="M61.8933 165.499C62.8964 166.042 64.0164 166.975 65.0868 168.221C66.6163 170.002 67.672 171.997 68.0288 173.57L68.099 173.947L68.2423 173.944C69.7542 173.927 72.3629 174.266 71.8628 174.26C71.6318 174.257 71.237 174.436 70.7895 174.69L70.4298 174.907L70.7339 175C71.6171 175.319 72.6173 175.913 73.635 176.764C76.3431 179.039 78.127 182.297 77.6152 184.043C76.7496 182.074 75.1031 179.963 73.1729 178.343C71.7253 177.129 70.2456 176.296 68.9851 175.962L68.8857 175.945L68.8038 176.003C68.7453 176.044 68.6927 176.082 68.64 176.12C67.8182 176.705 64.8528 177.281 64.2592 177.176C63.6684 177.071 65.581 176.395 66.1104 175.869C66.5695 175.41 66.4964 174.544 67.1135 174.155L67.2451 174.099L66.9497 173.456C66.2771 172.102 65.3471 170.704 64.2592 169.438C62.5191 167.408 60.5714 165.949 59.0039 165.496C59.5186 164.741 60.6065 164.797 61.8933 165.499Z" fill="#F4AB24"/>
</svg>
