<svg width="142" height="142" viewBox="0 0 142 142" fill="none" xmlns="http://www.w3.org/2000/svg">
<path fill-rule="evenodd" clip-rule="evenodd" d="M71.0026 130.169C103.68 130.169 130.169 103.68 130.169 71.0021C130.169 38.3244 103.68 11.8354 71.0026 11.8354C38.3249 11.8354 11.8359 38.3244 11.8359 71.0021C11.8359 103.68 38.3249 130.169 71.0026 130.169ZM95.0598 46.945C95.8908 47.777 96.3575 48.9048 96.3575 50.0808C96.3575 51.2567 95.8908 52.3846 95.0598 53.2166L77.2743 71.0021L95.0539 88.7817C95.8377 89.6229 96.2644 90.7355 96.2441 91.8851C96.2239 93.0347 95.7581 94.1316 94.9451 94.9446C94.1321 95.7577 93.0352 96.2234 91.8856 96.2437C90.736 96.2639 89.6234 95.8372 88.7822 95.0534L71.0026 77.2856L53.223 95.0652C52.8168 95.5012 52.3269 95.8509 51.7825 96.0934C51.2382 96.3359 50.6506 96.4664 50.0548 96.4769C49.459 96.4874 48.8671 96.3778 48.3146 96.1546C47.762 95.9314 47.2601 95.5992 46.8387 95.1778C46.4173 94.7565 46.0851 94.2545 45.862 93.702C45.6388 93.1494 45.5292 92.5576 45.5397 91.9618C45.5502 91.366 45.6806 90.7784 45.9232 90.234C46.1657 89.6897 46.5154 89.1998 46.9514 88.7935L64.7191 71.0021L46.9454 53.2225C46.5095 52.8163 46.1598 52.3264 45.9172 51.7821C45.6747 51.2377 45.5443 50.6501 45.5338 50.0543C45.5233 49.4585 45.6329 48.8666 45.856 48.3141C46.0792 47.7615 46.4114 47.2596 46.8328 46.8382C47.2542 46.4168 47.7561 46.0847 48.3087 45.8615C48.8612 45.6383 49.453 45.5287 50.0489 45.5392C50.6447 45.5497 51.2323 45.6801 51.7766 45.9227C52.321 46.1652 52.8109 46.5149 53.2171 46.9509L71.0026 64.7186L88.7822 46.939C89.6142 46.108 90.7421 45.6413 91.918 45.6413C93.094 45.6413 94.2218 46.108 95.0539 46.939" fill="#FF4045"/>
</svg>
