<svg width="155" height="155" viewBox="0 0 155 155" fill="none" xmlns="http://www.w3.org/2000/svg">
<path fill-rule="evenodd" clip-rule="evenodd" d="M77.5 135.625C85.1331 135.625 92.6914 134.122 99.7435 131.201C106.796 128.279 113.203 123.998 118.601 118.601C123.998 113.203 128.279 106.796 131.201 99.7435C134.122 92.6914 135.625 85.1331 135.625 77.5C135.625 69.8669 134.122 62.3086 131.201 55.2565C128.279 48.2045 123.998 41.7968 118.601 36.3994C113.203 31.002 106.796 26.7206 99.7435 23.7995C92.6914 20.8784 85.1331 19.375 77.5 19.375C62.0843 19.375 47.3 25.4989 36.3994 36.3994C25.4989 47.3 19.375 62.0843 19.375 77.5C19.375 92.9157 25.4989 107.7 36.3994 118.601C47.3 129.501 62.0843 135.625 77.5 135.625ZM76.0017 101.008L108.293 62.2583L98.3733 53.9917L70.6025 87.3102L56.2327 72.934L47.1006 82.066L66.4756 101.441L71.4744 106.44L76.0017 101.008Z" fill="#25B635"/>
</svg>
