<svg width="142" height="142" viewBox="0 0 142 142" fill="none" xmlns="http://www.w3.org/2000/svg">
<path fill-rule="evenodd" clip-rule="evenodd" d="M130.166 71.0002C130.166 38.3224 103.677 11.8335 70.9997 11.8335C38.3219 11.8335 11.833 38.3224 11.833 71.0002C11.833 103.678 38.3219 130.167 70.9997 130.167C103.677 130.167 130.166 103.678 130.166 71.0002ZM70.9997 41.4168C72.5689 41.4168 74.0738 42.0402 75.1834 43.1498C76.293 44.2594 76.9163 45.7643 76.9163 47.3335V76.9168C76.9163 78.486 76.293 79.991 75.1834 81.1005C74.0738 82.2101 72.5689 82.8335 70.9997 82.8335C69.4305 82.8335 67.9255 82.2101 66.816 81.1005C65.7064 79.991 65.083 78.486 65.083 76.9168V47.3335C65.083 45.7643 65.7064 44.2594 66.816 43.1498C67.9255 42.0402 69.4305 41.4168 70.9997 41.4168ZM65.083 94.6668C65.083 93.0976 65.7064 91.5927 66.816 90.4831C67.9255 89.3735 69.4305 88.7502 70.9997 88.7502H71.047C72.6162 88.7502 74.1211 89.3735 75.2307 90.4831C76.3403 91.5927 76.9637 93.0976 76.9637 94.6668C76.9637 96.236 76.3403 97.741 75.2307 98.8505C74.1211 99.9601 72.6162 100.583 71.047 100.583H70.9997C69.4305 100.583 67.9255 99.9601 66.816 98.8505C65.7064 97.741 65.083 96.236 65.083 94.6668Z" fill="#FEBE02"/>
</svg>
